<mxfile host="app.diagrams.net" modified="2021-03-07T15:51:49.928Z" agent="5.0 (Macintosh; Intel Mac OS X 10_15_6) AppleWebKit/605.1.15 (KHTML, like Gecko) Version/14.0.3 Safari/605.1.15" etag="hCDyE5juIAxBWA9XjAXr" version="14.4.3" type="github">
  <diagram id="Nb7U3mbtbcJnI9VTHwW9" name="Page-1">
    <mxGraphModel dx="2066" dy="1185" grid="1" gridSize="10" guides="1" tooltips="1" connect="1" arrows="1" fold="1" page="1" pageScale="1" pageWidth="827" pageHeight="1169" math="0" shadow="0">
      <root>
        <mxCell id="0" />
        <mxCell id="1" parent="0" />
        <mxCell id="sgqfJlQt-DCgGW_uSZip-1" value="&lt;font style=&quot;font-size: 16px&quot;&gt;Message&amp;nbsp;broker&lt;/font&gt;" style="rounded=0;whiteSpace=wrap;html=1;" vertex="1" parent="1">
          <mxGeometry x="240" y="200" width="160" height="40" as="geometry" />
        </mxCell>
        <mxCell id="sgqfJlQt-DCgGW_uSZip-3" value="Aplikace A" style="rounded=0;whiteSpace=wrap;html=1;" vertex="1" parent="1">
          <mxGeometry x="80" y="240" width="80" height="40" as="geometry" />
        </mxCell>
        <mxCell id="sgqfJlQt-DCgGW_uSZip-5" value="Aplikace B" style="rounded=0;whiteSpace=wrap;html=1;" vertex="1" parent="1">
          <mxGeometry x="480" y="160" width="80" height="40" as="geometry" />
        </mxCell>
        <mxCell id="sgqfJlQt-DCgGW_uSZip-6" value="Aplikace C" style="rounded=0;whiteSpace=wrap;html=1;" vertex="1" parent="1">
          <mxGeometry x="480" y="240" width="80" height="40" as="geometry" />
        </mxCell>
        <mxCell id="sgqfJlQt-DCgGW_uSZip-7" value="Aplikace D" style="rounded=0;whiteSpace=wrap;html=1;" vertex="1" parent="1">
          <mxGeometry x="480" y="320" width="80" height="40" as="geometry" />
        </mxCell>
        <mxCell id="sgqfJlQt-DCgGW_uSZip-11" value="" style="endArrow=classic;startArrow=classic;html=1;entryX=-0.008;entryY=0.167;entryDx=0;entryDy=0;entryPerimeter=0;" edge="1" parent="1">
          <mxGeometry width="50" height="50" relative="1" as="geometry">
            <mxPoint x="400.96000000000004" y="300" as="sourcePoint" />
            <mxPoint x="480" y="340.03999999999996" as="targetPoint" />
          </mxGeometry>
        </mxCell>
        <mxCell id="sgqfJlQt-DCgGW_uSZip-23" value="téma 4" style="edgeLabel;html=1;align=center;verticalAlign=middle;resizable=0;points=[];" vertex="1" connectable="0" parent="sgqfJlQt-DCgGW_uSZip-11">
          <mxGeometry x="0.1918" y="2" relative="1" as="geometry">
            <mxPoint x="-9.14" y="-2.17" as="offset" />
          </mxGeometry>
        </mxCell>
        <mxCell id="sgqfJlQt-DCgGW_uSZip-12" value="" style="endArrow=classic;startArrow=classic;html=1;entryX=0;entryY=0.5;entryDx=0;entryDy=0;exitX=1;exitY=0.5;exitDx=0;exitDy=0;" edge="1" parent="1">
          <mxGeometry width="50" height="50" relative="1" as="geometry">
            <mxPoint x="400" y="220" as="sourcePoint" />
            <mxPoint x="480" y="180" as="targetPoint" />
          </mxGeometry>
        </mxCell>
        <mxCell id="sgqfJlQt-DCgGW_uSZip-21" value="téma 1" style="edgeLabel;html=1;align=center;verticalAlign=middle;resizable=0;points=[];" vertex="1" connectable="0" parent="sgqfJlQt-DCgGW_uSZip-12">
          <mxGeometry y="2" relative="1" as="geometry">
            <mxPoint as="offset" />
          </mxGeometry>
        </mxCell>
        <mxCell id="sgqfJlQt-DCgGW_uSZip-13" value="" style="endArrow=classic;startArrow=classic;html=1;entryX=0;entryY=0.5;entryDx=0;entryDy=0;" edge="1" parent="1">
          <mxGeometry width="50" height="50" relative="1" as="geometry">
            <mxPoint x="400" y="259.5" as="sourcePoint" />
            <mxPoint x="480" y="259.5" as="targetPoint" />
          </mxGeometry>
        </mxCell>
        <mxCell id="sgqfJlQt-DCgGW_uSZip-22" value="téma 1" style="edgeLabel;html=1;align=center;verticalAlign=middle;resizable=0;points=[];" vertex="1" connectable="0" parent="sgqfJlQt-DCgGW_uSZip-13">
          <mxGeometry x="-0.025" relative="1" as="geometry">
            <mxPoint y="1" as="offset" />
          </mxGeometry>
        </mxCell>
        <mxCell id="sgqfJlQt-DCgGW_uSZip-14" value="" style="endArrow=classic;html=1;entryX=0;entryY=0.5;entryDx=0;entryDy=0;" edge="1" parent="1" target="sgqfJlQt-DCgGW_uSZip-16">
          <mxGeometry width="50" height="50" relative="1" as="geometry">
            <mxPoint x="160" y="260" as="sourcePoint" />
            <mxPoint x="210" y="210" as="targetPoint" />
          </mxGeometry>
        </mxCell>
        <mxCell id="sgqfJlQt-DCgGW_uSZip-20" value="téma 1" style="edgeLabel;html=1;align=center;verticalAlign=middle;resizable=0;points=[];" vertex="1" connectable="0" parent="sgqfJlQt-DCgGW_uSZip-14">
          <mxGeometry x="-0.05" y="2" relative="1" as="geometry">
            <mxPoint as="offset" />
          </mxGeometry>
        </mxCell>
        <mxCell id="sgqfJlQt-DCgGW_uSZip-15" value="" style="rounded=0;whiteSpace=wrap;html=1;" vertex="1" parent="1">
          <mxGeometry x="240" y="240" width="160" height="80" as="geometry" />
        </mxCell>
        <mxCell id="sgqfJlQt-DCgGW_uSZip-16" value="téma 1" style="rounded=0;whiteSpace=wrap;html=1;" vertex="1" parent="1">
          <mxGeometry x="240" y="240" width="80" height="40" as="geometry" />
        </mxCell>
        <mxCell id="sgqfJlQt-DCgGW_uSZip-17" value="téma 3" style="rounded=0;whiteSpace=wrap;html=1;" vertex="1" parent="1">
          <mxGeometry x="320" y="240" width="80" height="40" as="geometry" />
        </mxCell>
        <mxCell id="sgqfJlQt-DCgGW_uSZip-18" value="téma 4" style="rounded=0;whiteSpace=wrap;html=1;" vertex="1" parent="1">
          <mxGeometry x="320" y="280" width="80" height="40" as="geometry" />
        </mxCell>
        <mxCell id="sgqfJlQt-DCgGW_uSZip-19" value="téma 2" style="rounded=0;whiteSpace=wrap;html=1;" vertex="1" parent="1">
          <mxGeometry x="240" y="280" width="80" height="40" as="geometry" />
        </mxCell>
      </root>
    </mxGraphModel>
  </diagram>
</mxfile>
